<?xml version="1.0" encoding="UTF-8" standalone="no"?>
<!DOCTYPE svg PUBLIC "-//W3C//DTD SVG 1.1//EN"
 "http://www.w3.org/Graphics/SVG/1.1/DTD/svg11.dtd">
<!-- Generated by graphviz version 15.1.1 (20260805.0921)
 -->
<!-- Title: ControlCycle Pages: 1 -->
<svg width="501pt" height="712pt"
 viewBox="0.00 0.00 501.00 712.00" xmlns="http://www.w3.org/2000/svg" xmlns:xlink="http://www.w3.org/1999/xlink">
<g id="graph0" class="graph" transform="scale(1 1) rotate(0) translate(5.76 706.72)">
<title>ControlCycle</title>
<!-- main -->
<g id="node1" class="node">
<title>main</title>
<path fill="#eef4f7" stroke="#00588a" stroke-width="1.1" d="M103.42,-700.96C103.42,-700.96 28.82,-700.96 28.82,-700.96 22.82,-700.96 16.82,-694.96 16.82,-688.96 16.82,-688.96 16.82,-675.04 16.82,-675.04 16.82,-669.04 22.82,-663.04 28.82,-663.04 28.82,-663.04 103.42,-663.04 103.42,-663.04 109.42,-663.04 115.42,-669.04 115.42,-675.04 115.42,-675.04 115.42,-688.96 115.42,-688.96 115.42,-694.96 109.42,-700.96 103.42,-700.96"/>
<text xml:space="preserve" text-anchor="middle" x="66.12" y="-685.3" font-family="Arial" font-size="11.00" fill="#17343f">main.py or</text>
<text xml:space="preserve" text-anchor="middle" x="66.12" y="-672.1" font-family="Arial" font-size="11.00" fill="#17343f">supplied mission</text>
</g>
<!-- robot -->
<g id="node2" class="node">
<title>robot</title>
<path fill="#eef4f7" stroke="#00588a" stroke-width="1.1" d="M112.28,-606.24C112.28,-606.24 19.95,-606.24 19.95,-606.24 13.95,-606.24 7.95,-600.24 7.95,-594.24 7.95,-594.24 7.95,-580.32 7.95,-580.32 7.95,-574.32 13.95,-568.32 19.95,-568.32 19.95,-568.32 112.28,-568.32 112.28,-568.32 118.28,-568.32 124.28,-574.32 124.28,-580.32 124.28,-580.32 124.28,-594.24 124.28,-594.24 124.28,-600.24 118.28,-606.24 112.28,-606.24"/>
<text xml:space="preserve" text-anchor="middle" x="66.12" y="-590.58" font-family="Arial" font-size="11.00" fill="#17343f">Robot.step()</text>
<text xml:space="preserve" text-anchor="middle" x="66.12" y="-577.38" font-family="Arial" font-size="11.00" fill="#17343f">orchestrates sample</text>
</g>
<!-- main&#45;&gt;robot -->
<g id="edge1" class="edge">
<title>main&#45;&gt;robot</title>
<path fill="none" stroke="#4d616b" stroke-width="1.1" d="M66.12,-662.68C66.12,-648.97 66.12,-630.01 66.12,-614.66"/>
<polygon fill="#4d616b" stroke="#4d616b" stroke-width="1.1" points="68.39,-614.73 66.12,-608.23 63.84,-614.73 68.39,-614.73"/>
<text xml:space="preserve" text-anchor="middle" x="100.38" y="-631.94" font-family="Arial" font-size="9.00" fill="#3f5058">MotionCommand</text>
</g>
<!-- drive -->
<g id="node4" class="node">
<title>drive</title>
<path fill="#f3f8f7" stroke="#39736f" stroke-width="1.1" d="M104.02,-511.52C104.02,-511.52 28.21,-511.52 28.21,-511.52 22.21,-511.52 16.21,-505.52 16.21,-499.52 16.21,-499.52 16.21,-485.6 16.21,-485.6 16.21,-479.6 22.21,-473.6 28.21,-473.6 28.21,-473.6 104.02,-473.6 104.02,-473.6 110.02,-473.6 116.02,-479.6 116.02,-485.6 116.02,-485.6 116.02,-499.52 116.02,-499.52 116.02,-505.52 110.02,-511.52 104.02,-511.52"/>
<text xml:space="preserve" text-anchor="middle" x="66.12" y="-495.86" font-family="Arial" font-size="11.00" fill="#17343f">DifferentialDrive*</text>
<text xml:space="preserve" text-anchor="middle" x="66.12" y="-482.66" font-family="Arial" font-size="11.00" fill="#17343f">WheelSpeeds</text>
</g>
<!-- robot&#45;&gt;drive -->
<g id="edge2" class="edge">
<title>robot&#45;&gt;drive</title>
<path fill="none" stroke="#4d616b" stroke-width="1.1" d="M65.87,-568.2C65.72,-557.22 65.56,-545.32 65.56,-545.32 65.56,-545.32 65.56,-534.52 65.56,-534.52 65.56,-534.52 65.65,-527.68 65.76,-519.6"/>
<polygon fill="#4d616b" stroke="#4d616b" stroke-width="1.1" points="68.03,-519.84 65.85,-513.31 63.48,-519.78 68.03,-519.84"/>
<text xml:space="preserve" text-anchor="middle" x="118.34" y="-537.22" font-family="Arial" font-size="9.00" fill="#3f5058">calls selected components</text>
</g>
<!-- target -->
<g id="node3" class="node">
<title>target</title>
<path fill="#f8f5ed" stroke="#8d7440" stroke-width="1.1" d="M314.59,-322.08C314.59,-322.08 221.64,-322.08 221.64,-322.08 215.64,-322.08 209.64,-316.08 209.64,-310.08 209.64,-310.08 209.64,-296.16 209.64,-296.16 209.64,-290.16 215.64,-284.16 221.64,-284.16 221.64,-284.16 314.59,-284.16 314.59,-284.16 320.59,-284.16 326.59,-290.16 326.59,-296.16 326.59,-296.16 326.59,-310.08 326.59,-310.08 326.59,-316.08 320.59,-322.08 314.59,-322.08"/>
<text xml:space="preserve" text-anchor="middle" x="268.12" y="-306.42" font-family="Arial" font-size="11.00" fill="#17343f">Selected XRP target</text>
<text xml:space="preserve" text-anchor="middle" x="268.12" y="-293.22" font-family="Arial" font-size="11.00" fill="#17343f">motors and sensors</text>
</g>
<!-- controller -->
<g id="node5" class="node">
<title>controller</title>
<path fill="#f3f8f7" stroke="#39736f" stroke-width="1.1" d="M120.23,-416.8C120.23,-416.8 12,-416.8 12,-416.8 6,-416.8 0,-410.8 0,-404.8 0,-404.8 0,-390.88 0,-390.88 0,-384.88 6,-378.88 12,-378.88 12,-378.88 120.23,-378.88 120.23,-378.88 126.23,-378.88 132.23,-384.88 132.23,-390.88 132.23,-390.88 132.23,-404.8 132.23,-404.8 132.23,-410.8 126.23,-416.8 120.23,-416.8"/>
<text xml:space="preserve" text-anchor="middle" x="66.12" y="-401.14" font-family="Arial" font-size="11.00" fill="#17343f">WheelSpeedController*</text>
<text xml:space="preserve" text-anchor="middle" x="66.12" y="-387.94" font-family="Arial" font-size="11.00" fill="#17343f">DriveCommand</text>
</g>
<!-- drive&#45;&gt;controller -->
<g id="edge3" class="edge">
<title>drive&#45;&gt;controller</title>
<path fill="none" stroke="#4d616b" stroke-width="1.1" d="M66.12,-473.24C66.12,-459.53 66.12,-440.57 66.12,-425.22"/>
<polygon fill="#4d616b" stroke="#4d616b" stroke-width="1.1" points="68.39,-425.29 66.12,-418.79 63.84,-425.29 68.39,-425.29"/>
<text xml:space="preserve" text-anchor="middle" x="106.39" y="-442.5" font-family="Arial" font-size="9.00" fill="#3f5058">target wheel speeds</text>
</g>
<!-- bot -->
<g id="node6" class="node">
<title>bot</title>
<path fill="#ffffff" stroke="#667984" stroke-width="1.1" d="M103.12,-322.08C103.12,-322.08 29.11,-322.08 29.11,-322.08 23.11,-322.08 17.11,-316.08 17.11,-310.08 17.11,-310.08 17.11,-296.16 17.11,-296.16 17.11,-290.16 23.11,-284.16 29.11,-284.16 29.11,-284.16 103.12,-284.16 103.12,-284.16 109.12,-284.16 115.12,-290.16 115.12,-296.16 115.12,-296.16 115.12,-310.08 115.12,-310.08 115.12,-316.08 109.12,-322.08 103.12,-322.08"/>
<text xml:space="preserve" text-anchor="middle" x="66.12" y="-306.42" font-family="Arial" font-size="11.00" fill="#17343f">XRPBot</text>
<text xml:space="preserve" text-anchor="middle" x="66.12" y="-293.22" font-family="Arial" font-size="11.00" fill="#17343f">device boundary</text>
</g>
<!-- controller&#45;&gt;bot -->
<g id="edge4" class="edge">
<title>controller&#45;&gt;bot</title>
<path fill="none" stroke="#4d616b" stroke-width="1.1" d="M66.12,-378.52C66.12,-364.81 66.12,-345.85 66.12,-330.5"/>
<polygon fill="#4d616b" stroke="#4d616b" stroke-width="1.1" points="68.39,-330.57 66.12,-324.07 63.84,-330.57 68.39,-330.57"/>
<text xml:space="preserve" text-anchor="middle" x="98.63" y="-347.78" font-family="Arial" font-size="9.00" fill="#3f5058">motor command</text>
</g>
<!-- bot&#45;&gt;target -->
<g id="edge5" class="edge">
<title>bot&#45;&gt;target</title>
<path fill="none" stroke="#4d616b" stroke-width="1.1" d="M123.66,-303.12C147.81,-303.12 176.06,-303.12 201.13,-303.12"/>
<polygon fill="#4d616b" stroke="#4d616b" stroke-width="1.1" points="123.7,-300.85 117.2,-303.12 123.7,-305.4 123.7,-300.85"/>
<polygon fill="#4d616b" stroke="#4d616b" stroke-width="1.1" points="200.99,-305.4 207.49,-303.12 200.99,-300.85 200.99,-305.4"/>
<text xml:space="preserve" text-anchor="middle" x="162.38" y="-319.62" font-family="Arial" font-size="9.00" fill="#3f5058">DriveCommand /</text>
<text xml:space="preserve" text-anchor="middle" x="162.38" y="-308.82" font-family="Arial" font-size="9.00" fill="#3f5058">sensor values</text>
</g>
<!-- sensor -->
<g id="node7" class="node">
<title>sensor</title>
<path fill="#f3f8f7" stroke="#39736f" stroke-width="1.1" d="M99.13,-227.36C99.13,-227.36 33.1,-227.36 33.1,-227.36 27.1,-227.36 21.1,-221.36 21.1,-215.36 21.1,-215.36 21.1,-201.44 21.1,-201.44 21.1,-195.44 27.1,-189.44 33.1,-189.44 33.1,-189.44 99.13,-189.44 99.13,-189.44 105.13,-189.44 111.13,-195.44 111.13,-201.44 111.13,-201.44 111.13,-215.36 111.13,-215.36 111.13,-221.36 105.13,-227.36 99.13,-227.36"/>
<text xml:space="preserve" text-anchor="middle" x="66.12" y="-211.7" font-family="Arial" font-size="11.00" fill="#17343f">SensorModel*</text>
<text xml:space="preserve" text-anchor="middle" x="66.12" y="-198.5" font-family="Arial" font-size="11.00" fill="#17343f">Measurements</text>
</g>
<!-- bot&#45;&gt;sensor -->
<g id="edge6" class="edge">
<title>bot&#45;&gt;sensor</title>
<path fill="none" stroke="#4d616b" stroke-width="1.1" d="M66.12,-283.8C66.12,-270.09 66.12,-251.13 66.12,-235.78"/>
<polygon fill="#4d616b" stroke="#4d616b" stroke-width="1.1" points="68.39,-235.85 66.12,-229.35 63.84,-235.85 68.39,-235.85"/>
<text xml:space="preserve" text-anchor="middle" x="91.63" y="-253.06" font-family="Arial" font-size="9.00" fill="#3f5058">RawSensors</text>
</g>
<!-- sensor&#45;&gt;controller -->
<g id="edge11" class="edge">
<title>sensor&#45;&gt;controller</title>
<path fill="none" stroke="#006c64" stroke-width="1.1" stroke-dasharray="5,2" d="M111.67,-221.83C189.58,-243.09 340.12,-284.16 340.12,-284.16 340.12,-284.16 340.12,-322.08 340.12,-322.08 340.12,-322.08 221.32,-354.49 140.17,-376.63"/>
<polygon fill="#006c64" stroke="#006c64" stroke-width="1.1" points="139.72,-374.4 134.05,-378.3 140.92,-378.79 139.72,-374.4"/>
<text xml:space="preserve" text-anchor="middle" x="400.9" y="-305.82" font-family="Arial" font-size="9.00" fill="#005f58">latest measured wheel speeds</text>
<text xml:space="preserve" text-anchor="middle" x="400.9" y="-295.02" font-family="Arial" font-size="9.00" fill="#005f58">(next step)</text>
</g>
<!-- odometry -->
<g id="node8" class="node">
<title>odometry</title>
<path fill="#f3f8f7" stroke="#39736f" stroke-width="1.1" d="M71.04,-132.64C71.04,-132.64 25.19,-132.64 25.19,-132.64 19.19,-132.64 13.19,-126.64 13.19,-120.64 13.19,-120.64 13.19,-106.72 13.19,-106.72 13.19,-100.72 19.19,-94.72 25.19,-94.72 25.19,-94.72 71.04,-94.72 71.04,-94.72 77.04,-94.72 83.04,-100.72 83.04,-106.72 83.04,-106.72 83.04,-120.64 83.04,-120.64 83.04,-126.64 77.04,-132.64 71.04,-132.64"/>
<text xml:space="preserve" text-anchor="middle" x="48.12" y="-116.98" font-family="Arial" font-size="11.00" fill="#17343f">Odometry*</text>
<text xml:space="preserve" text-anchor="middle" x="48.12" y="-103.78" font-family="Arial" font-size="11.00" fill="#17343f">Pose</text>
</g>
<!-- sensor&#45;&gt;odometry -->
<g id="edge7" class="edge">
<title>sensor&#45;&gt;odometry</title>
<path fill="none" stroke="#4d616b" stroke-width="1.1" d="M57.71,-189.32C52.62,-178.34 47.08,-166.44 47.08,-166.44 47.08,-166.44 47.08,-155.64 47.08,-155.64 47.08,-155.64 47.26,-148.8 47.46,-140.72"/>
<polygon fill="#4d616b" stroke="#4d616b" stroke-width="1.1" points="49.73,-140.98 47.62,-134.43 45.18,-140.87 49.73,-140.98"/>
<text xml:space="preserve" text-anchor="middle" x="82.1" y="-158.34" font-family="Arial" font-size="9.00" fill="#3f5058">wheel increments</text>
</g>
<!-- state -->
<g id="node9" class="node">
<title>state</title>
<path fill="#ffffff" stroke="#667984" stroke-width="1.1" d="M144.94,-37.92C144.94,-37.92 41.3,-37.92 41.3,-37.92 35.3,-37.92 29.3,-31.92 29.3,-25.92 29.3,-25.92 29.3,-12 29.3,-12 29.3,-6 35.3,0 41.3,0 41.3,0 144.94,0 144.94,0 150.94,0 156.94,-6 156.94,-12 156.94,-12 156.94,-25.92 156.94,-25.92 156.94,-31.92 150.94,-37.92 144.94,-37.92"/>
<text xml:space="preserve" text-anchor="middle" x="93.12" y="-22.26" font-family="Arial" font-size="11.00" fill="#17343f">RobotState</text>
<text xml:space="preserve" text-anchor="middle" x="93.12" y="-9.06" font-family="Arial" font-size="11.00" fill="#17343f">Measurements + Pose</text>
</g>
<!-- sensor&#45;&gt;state -->
<g id="edge8" class="edge">
<title>sensor&#45;&gt;state</title>
<path fill="none" stroke="#4d616b" stroke-width="1.1" d="M89.83,-189.08C103.94,-178.17 119.12,-166.44 119.12,-166.44 119.12,-166.44 119.12,-155.64 119.12,-155.64 119.12,-155.64 105.7,-85.61 98.14,-46.17"/>
<polygon fill="#4d616b" stroke="#4d616b" stroke-width="1.1" points="100.39,-45.85 96.94,-39.89 95.92,-46.71 100.39,-45.85"/>
<text xml:space="preserve" text-anchor="middle" x="144.32" y="-110.98" font-family="Arial" font-size="9.00" fill="#3f5058">Measurements</text>
</g>
<!-- odometry&#45;&gt;state -->
<g id="edge9" class="edge">
<title>odometry&#45;&gt;state</title>
<path fill="none" stroke="#4d616b" stroke-width="1.1" d="M57.01,-94.36C63.79,-80.39 73.21,-60.98 80.73,-45.49"/>
<polygon fill="#4d616b" stroke="#4d616b" stroke-width="1.1" points="82.73,-46.58 83.52,-39.74 78.63,-44.59 82.73,-46.58"/>
<text xml:space="preserve" text-anchor="middle" x="82.22" y="-63.62" font-family="Arial" font-size="9.00" fill="#3f5058">Pose</text>
</g>
<!-- state&#45;&gt;main -->
<g id="edge10" class="edge">
<title>state&#45;&gt;main</title>
<path fill="none" stroke="#4d616b" stroke-width="1.1" d="M119.19,-38.33C204.23,-98.24 468.12,-284.16 468.12,-284.16 468.12,-284.16 468.12,-322.08 468.12,-322.08 468.12,-322.08 141.12,-640.04 141.12,-640.04 141.12,-640.04 124.38,-649.18 106.71,-658.83"/>
<polygon fill="#4d616b" stroke="#4d616b" stroke-width="1.1" points="105.74,-656.77 101.13,-661.88 107.92,-660.76 105.74,-656.77"/>
<text xml:space="preserve" text-anchor="middle" x="466.72" y="-347.78" font-family="Arial" font-size="9.00" fill="#3f5058">RobotState</text>
</g>
</g>
</svg>
