<?xml version="1.0" encoding="UTF-8" standalone="no"?>
<!DOCTYPE svg PUBLIC "-//W3C//DTD SVG 1.1//EN"
 "http://www.w3.org/Graphics/SVG/1.1/DTD/svg11.dtd">
<!-- Generated by graphviz version 15.1.1 (20260805.0921)
 -->
<!-- Title: SystemBoundary Pages: 1 -->
<svg width="959pt" height="199pt"
 viewBox="0.00 0.00 959.00 199.00" xmlns="http://www.w3.org/2000/svg" xmlns:xlink="http://www.w3.org/1999/xlink">
<g id="graph0" class="graph" transform="scale(1 1) rotate(0) translate(5.76 193.64)">
<title>SystemBoundary</title>
<g id="clust1" class="cluster">
<title>cluster_target</title>
<path fill="none" stroke="#adb5ba" d="M288.51,-11.88C288.51,-11.88 927.3,-11.88 927.3,-11.88 933.3,-11.88 939.3,-17.88 939.3,-23.88 939.3,-23.88 939.3,-167.88 939.3,-167.88 939.3,-173.88 933.3,-179.88 927.3,-179.88 927.3,-179.88 288.51,-179.88 288.51,-179.88 282.51,-179.88 276.51,-173.88 276.51,-167.88 276.51,-167.88 276.51,-23.88 276.51,-23.88 276.51,-17.88 282.51,-11.88 288.51,-11.88"/>
<text xml:space="preserve" text-anchor="middle" x="607.9" y="-166.88" font-family="Arial" font-size="10.00" fill="#4b5962">Selected target</text>
</g>
<!-- ide -->
<g id="node1" class="node">
<title>ide</title>
<path fill="#eef4f7" stroke="#00588a" stroke-width="1.1" d="M90.54,-119.76C90.54,-119.76 31,-119.76 31,-119.76 25,-119.76 19,-113.76 19,-107.76 19,-107.76 19,-90 19,-90 19,-84 25,-78 31,-78 31,-78 90.54,-78 90.54,-78 96.54,-78 102.54,-84 102.54,-90 102.54,-90 102.54,-107.76 102.54,-107.76 102.54,-113.76 96.54,-119.76 90.54,-119.76"/>
<text xml:space="preserve" text-anchor="middle" x="60.77" y="-102.48" font-family="Arial" font-size="12.00" fill="#17343f">IDE</text>
<text xml:space="preserve" text-anchor="middle" x="60.77" y="-88.08" font-family="Arial" font-size="12.00" fill="#17343f">edit and run</text>
</g>
<!-- project -->
<g id="node3" class="node">
<title>project</title>
<path fill="#ffffff" stroke="#667984" stroke-width="1.1" d="M412.73,-119.76C412.73,-119.76 302.51,-119.76 302.51,-119.76 296.51,-119.76 290.51,-113.76 290.51,-107.76 290.51,-107.76 290.51,-90 290.51,-90 290.51,-84 296.51,-78 302.51,-78 302.51,-78 412.73,-78 412.73,-78 418.73,-78 424.73,-84 424.73,-90 424.73,-90 424.73,-107.76 424.73,-107.76 424.73,-113.76 418.73,-119.76 412.73,-119.76"/>
<text xml:space="preserve" text-anchor="middle" x="357.62" y="-102.48" font-family="Arial" font-size="12.00" fill="#17343f">Project</text>
<text xml:space="preserve" text-anchor="middle" x="357.62" y="-88.08" font-family="Arial" font-size="12.00" fill="#17343f">main.py and modules</text>
</g>
<!-- ide&#45;&gt;project -->
<g id="edge4" class="edge">
<title>ide&#45;&gt;project</title>
<path fill="none" stroke="#4d616b" stroke-width="1.1" d="M103.08,-98.88C145.77,-98.88 213.72,-98.88 268.53,-98.88"/>
<polygon fill="#4d616b" stroke="#4d616b" stroke-width="1.1" points="268.35,-101.16 274.85,-98.88 268.35,-96.61 268.35,-101.16"/>
<text xml:space="preserve" text-anchor="middle" x="206.03" y="-101.73" font-family="Arial" font-size="9.50" fill="#3f5058">project + Run / Stop / Reset</text>
</g>
<!-- monitor -->
<g id="node2" class="node">
<title>monitor</title>
<path fill="#eef4f7" stroke="#00588a" stroke-width="1.1" d="M109.54,-41.76C109.54,-41.76 12,-41.76 12,-41.76 6,-41.76 0,-35.76 0,-29.76 0,-29.76 0,-12 0,-12 0,-6 6,0 12,0 12,0 109.54,0 109.54,0 115.54,0 121.54,-6 121.54,-12 121.54,-12 121.54,-29.76 121.54,-29.76 121.54,-35.76 115.54,-41.76 109.54,-41.76"/>
<text xml:space="preserve" text-anchor="middle" x="60.77" y="-24.48" font-family="Arial" font-size="12.00" fill="#17343f">Monitor</text>
<text xml:space="preserve" text-anchor="middle" x="60.77" y="-10.08" font-family="Arial" font-size="12.00" fill="#17343f">telemetry and plots</text>
</g>
<!-- project&#45;&gt;monitor -->
<g id="edge5" class="edge">
<title>project&#45;&gt;monitor</title>
<path fill="none" stroke="#4d616b" stroke-width="1.1" d="M276.51,-77.69C230.54,-65.52 173.44,-50.42 129.68,-38.84"/>
<polygon fill="#4d616b" stroke="#4d616b" stroke-width="1.1" points="130.27,-36.65 123.4,-37.18 129.11,-41.05 130.27,-36.65"/>
<text xml:space="preserve" text-anchor="middle" x="206.03" y="-76.5" font-family="Arial" font-size="9.50" fill="#3f5058">state, output, telemetry</text>
</g>
<!-- api -->
<g id="node4" class="node">
<title>api</title>
<path fill="#f3f8f7" stroke="#39736f" stroke-width="1.1" d="M655.93,-119.76C655.93,-119.76 525.69,-119.76 525.69,-119.76 519.69,-119.76 513.69,-113.76 513.69,-107.76 513.69,-107.76 513.69,-90 513.69,-90 513.69,-84 519.69,-78 525.69,-78 525.69,-78 655.93,-78 655.93,-78 661.93,-78 667.93,-84 667.93,-90 667.93,-90 667.93,-107.76 667.93,-107.76 667.93,-113.76 661.93,-119.76 655.93,-119.76"/>
<text xml:space="preserve" text-anchor="middle" x="590.81" y="-102.48" font-family="Arial" font-size="12.00" fill="#17343f">UCSB XRP API</text>
<text xml:space="preserve" text-anchor="middle" x="590.81" y="-88.08" font-family="Arial" font-size="12.00" fill="#17343f">XRPBot device boundary</text>
</g>
<!-- project&#45;&gt;api -->
<g id="edge1" class="edge">
<title>project&#45;&gt;api</title>
<path fill="none" stroke="#4d616b" stroke-width="1.1" d="M425.18,-98.88C450.2,-98.88 478.99,-98.88 505.42,-98.88"/>
<polygon fill="#4d616b" stroke="#4d616b" stroke-width="1.1" points="505.38,-101.16 511.88,-98.88 505.38,-96.61 505.38,-101.16"/>
<text xml:space="preserve" text-anchor="middle" x="469.21" y="-101.73" font-family="Arial" font-size="9.50" fill="#3f5058">API calls</text>
</g>
<!-- virtual -->
<g id="node5" class="node">
<title>virtual</title>
<path fill="#f8f5ed" stroke="#8d7440" stroke-width="1.1" d="M905.61,-67.76C905.61,-67.76 814.08,-67.76 814.08,-67.76 808.08,-67.76 802.08,-61.76 802.08,-55.76 802.08,-55.76 802.08,-38 802.08,-38 802.08,-32 808.08,-26 814.08,-26 814.08,-26 905.61,-26 905.61,-26 911.61,-26 917.61,-32 917.61,-38 917.61,-38 917.61,-55.76 917.61,-55.76 917.61,-61.76 911.61,-67.76 905.61,-67.76"/>
<text xml:space="preserve" text-anchor="middle" x="859.85" y="-50.48" font-family="Arial" font-size="12.00" fill="#17343f">Virtual XRP</text>
<text xml:space="preserve" text-anchor="middle" x="859.85" y="-36.08" font-family="Arial" font-size="12.00" fill="#17343f">simulated XRPLib</text>
</g>
<!-- api&#45;&gt;virtual -->
<g id="edge2" class="edge">
<title>api&#45;&gt;virtual</title>
<path fill="none" stroke="#4d616b" stroke-width="1.1" d="M668.33,-83.98C708.04,-76.25 756.04,-66.9 793.92,-59.52"/>
<polygon fill="#4d616b" stroke="#4d616b" stroke-width="1.1" points="794.26,-61.77 800.21,-58.3 793.39,-57.31 794.26,-61.77"/>
<text xml:space="preserve" text-anchor="middle" x="731.16" y="-80.39" font-family="Arial" font-size="9.50" fill="#3f5058">device operations</text>
</g>
<!-- physical -->
<g id="node6" class="node">
<title>physical</title>
<path fill="#f8f5ed" stroke="#8d7440" stroke-width="1.1" d="M913.3,-145.76C913.3,-145.76 806.39,-145.76 806.39,-145.76 800.39,-145.76 794.39,-139.76 794.39,-133.76 794.39,-133.76 794.39,-116 794.39,-116 794.39,-110 800.39,-104 806.39,-104 806.39,-104 913.3,-104 913.3,-104 919.3,-104 925.3,-110 925.3,-116 925.3,-116 925.3,-133.76 925.3,-133.76 925.3,-139.76 919.3,-145.76 913.3,-145.76"/>
<text xml:space="preserve" text-anchor="middle" x="859.85" y="-128.48" font-family="Arial" font-size="12.00" fill="#17343f">Physical XRP</text>
<text xml:space="preserve" text-anchor="middle" x="859.85" y="-114.08" font-family="Arial" font-size="12.00" fill="#17343f">RP2350 and XRPLib</text>
</g>
<!-- api&#45;&gt;physical -->
<g id="edge3" class="edge">
<title>api&#45;&gt;physical</title>
<path fill="none" stroke="#4d616b" stroke-width="1.1" d="M668.33,-106.33C705.45,-109.94 749.81,-114.26 786.38,-117.82"/>
<polygon fill="#4d616b" stroke="#4d616b" stroke-width="1.1" points="785.72,-120.05 792.41,-118.41 786.16,-115.52 785.72,-120.05"/>
</g>
</g>
</svg>
