<svg xmlns="http://www.w3.org/2000/svg" viewBox="0 0 700 330" role="img" aria-labelledby="title desc">
<title id="title">Arena Line Circuit</title>
<desc id="desc">Circuit 1 of eight selectable worlds. Dark closed line and wide finish bar, blue start box and axle position, four numbered odometry checkpoints, and counterclockwise direction arrows in a 3048 by 1219.2 mm arena.</desc>
<defs><marker id="arrow" markerWidth="8" markerHeight="8" refX="6" refY="4" orient="auto"><path d="M0 0 L8 4 L0 8 Z" fill="#0f766e"/></marker></defs>
<style>.background{fill:#fff}.arena{fill:#f8fafc;stroke:#64748b;stroke-width:1.5}.start-box{fill:#dbeafe;fill-opacity:.55;stroke:#155e75;stroke-width:1.5;stroke-dasharray:4 3}.obstacle{fill:#475569;stroke:#334155;stroke-width:1.5}.gate{fill:#f59e0b;fill-opacity:.55;stroke:#92400e;stroke-width:2;stroke-dasharray:5 3}.track{fill:none;stroke:#1f2937;stroke-linejoin:round;stroke-linecap:round}.finish{stroke:#111827;stroke-linecap:round}.outbound{fill:none;stroke:#0f766e;stroke-width:3;stroke-dasharray:7 5;stroke-linejoin:round}.direction{stroke:#0f766e;stroke-width:3;stroke-linecap:round}.point{fill:#155e75;stroke:#fff;stroke-width:2}.goal{fill:#b45309;stroke:#fff;stroke-width:2}.home{fill:#155e75;stroke:#fff;stroke-width:2}.point-text{fill:#fff;font:700 12px system-ui,sans-serif}.label{fill:#0f172a;font:600 13px system-ui,sans-serif;paint-order:stroke;stroke:#fff;stroke-width:3px}.small{fill:#334155;font:12px system-ui,sans-serif}</style>
<rect class="background" width="700" height="330"/>
<rect class="arena" x="50.0" y="45.0" width="600.00" height="240.00"/>
<rect class="start-box" x="93.31" y="149.25" width="31.49" height="31.50"/>
<polyline class="track" stroke-width="3.54" points="119.88,165.0 527.17,165.0 566.54,155.16 586.22,130.55 566.54,105.94 527.17,96.1 119.88,96.1 96.06,105.94 86.22,130.55 96.06,155.16 119.88,165.0"/>
<polyline class="finish" stroke-width="9.84" points="119.88,177.8 119.88,152.2"/>
<circle class="point" cx="527.17" cy="165.0" r="10"/><text class="point-text" x="527.17" y="169.0" text-anchor="middle">1</text>
<circle class="point" cx="566.54" cy="105.94" r="10"/><text class="point-text" x="566.54" y="109.94" text-anchor="middle">2</text>
<circle class="point" cx="133.46" cy="96.1" r="10"/><text class="point-text" x="133.46" y="100.1" text-anchor="middle">3</text>
<circle class="point" cx="90.16" cy="130.55" r="10"/><text class="point-text" x="90.16" y="134.55" text-anchor="middle">4</text>
<circle class="home" cx="109.06" cy="165.0" r="6"/>
<text class="label" x="129.06" y="196.0" text-anchor="start">Start / finish</text>
<line class="direction" x1="285" y1="165.0" x2="323" y2="165.0" marker-end="url(#arrow)"/>
<line class="direction" x1="426" y1="96.1" x2="390" y2="96.1" marker-end="url(#arrow)"/>
<text class="small" x="52" y="41" text-anchor="start">+y ↑</text>
<text class="small" x="649" y="301" text-anchor="end">+x →</text>
<text class="small" x="50" y="311" text-anchor="start">Dark line and bar: supplied course geometry · Numbers: checkpoint order</text>
</svg>
